# xmcd
#
# Track frame offsets:
#	150
#	12785
#	28690
#	47772
#	64115
#	78247
#	97282
#	111245
#	126615
#	144997
#
# Disc length: 2122
#
# Revision: 3
# Processed by: cddbd v1.5.1PL0 Copyright (c) Steve Scherf et al.
# Submitted via: DiscPlay 4.0.4
# Normalized: r1:DSETVAR1,TDELIM( - ),TSWAP
#
DISCID=8908480a
DTITLE=Various Artist - HOT COUNTRY ROCK   Country Music's Hottest Hits
DYEAR=1900
DGENRE=
TTITLE0=Dwight yoakam - Honky Tonk Man
TTITLE1=Restless Heart - That Rock Won't Roll
TTITLE2=Alabama - Mountain Music
TTITLE3=Dan Seals - Guitar Man Out of Control
TTITLE4=Nitty Gritty Dirt Band - Baby's Got A Hold On Me
TTITLE5=Waylon Jennings - I've always Been Crazy
TTITLE6=John Anderson - Swingin'
TTITLE7=Steve Earle - Goodbye's All We've Got Left
TTITLE8=T. Graham Brown - Don't Go To Strangers
TTITLE9=Southern Pacific - Killbilly Hill
EXTD=
EXTT0=
EXTT1=
EXTT2=
EXTT3=
EXTT4=
EXTT5=
EXTT6=
EXTT7=
EXTT8=
EXTT9=
PLAYORDER=
